<svg fill="none" xmlns="http://www.w3.org/2000/svg" viewBox="0 0 18 18"><path d="M9 17.27a.75.75 0 0 1-.53-.22l-7-7A.753.753 0 1 1 2.55 9L9 15.45 15.45 9a.75.75 0 1 1 1.06 1.06l-7 7a.75.75 0 0 1-.51.21Z" fill="#FDF3F6"/><path d="M9 17.26a.76.76 0 0 1-.75-.75v-15a.75.75 0 0 1 1.5 0v15a.76.76 0 0 1-.75.75Z" fill="#FDF3F6"/><path d="M9 18a1.5 1.5 0 0 1-1.06-.44l-7-7a1.503 1.503 0 1 1 2.13-2.12L9 14.39l5.92-5.93a1.503 1.503 0 0 1 2.13 2.12l-7 7A1.5 1.5 0 0 1 9 18Z" fill="#FDF3F6"/><path d="M9 18a1.5 1.5 0 0 1-1.5-1.5v-15a1.5 1.5 0 1 1 3 0v15A1.5 1.5 0 0 1 9 18Z" fill="#FDF3F6"/></svg>