<svg fill="none" xmlns="http://www.w3.org/2000/svg" viewBox="0 0 30 32"><path d="M2.918 18.999v.006c.56 3.705.752 7.457.575 11.2v.01c0 .254.142.43.322.511.145.179.415.33.702.187a96.695 96.695 0 0 0 24.005-14.804l.178-.005a.542.542 0 0 0 .483-.28.628.628 0 0 0 .076-.342.515.515 0 0 0 .154-.509.6.6 0 0 0-.207-.315.501.501 0 0 0-.31-.338A392.842 392.842 0 0 1 1.449 1.103a.567.567 0 0 0-.704.129.583.583 0 0 0-.155.562 68.312 68.312 0 0 1 1.947 13.247.546.546 0 0 0 .458.546.61.61 0 0 0 .217.053 276.19 276.19 0 0 0 16.457.567l-16.19 1.905a.532.532 0 0 0-.444.252.662.662 0 0 0-.098.393.595.595 0 0 0-.02.242ZM2.004 2.7A373.735 373.735 0 0 0 27.532 14.98c-7.955.186-15.91.03-23.866-.466A69.397 69.397 0 0 0 2.004 2.7ZM4.11 19.196l21.995-2.587A96.074 96.074 0 0 1 4.671 29.595a58.433 58.433 0 0 0-.562-10.399Z" fill="#272727" stroke="#272727" stroke-width=".453" stroke-linejoin="round"/></svg>