<svg fill="none" xmlns="http://www.w3.org/2000/svg" viewBox="0 0 459 215"><path d="M356.987 92.671v65.101c0 1.975 2.15 3.205 3.861 2.208l14.05-8.186s16.682-6.935 28.858-6.935c12.177 0 30.849 6.935 30.849 6.935l16.141 8.464c1.709.896 3.761-.339 3.761-2.264V92.671c0-26.891-21.831-50.623-48.76-50.623-12.071 0-23.118 4.768-31.633 12.452A52.265 52.265 0 0 0 358.618 80a50.241 50.241 0 0 0-1.631 12.671Z" fill="#F4F6F6"/><path d="M356.987 92.671 366 91.5m-9.013 1.171V108m0-15.329c0-4.334.567-8.587 1.631-12.671m47.129-37.952c26.929 0 48.76 23.732 48.76 50.623v65.323c0 1.925-2.052 3.16-3.761 2.264l-16.141-8.464M405.747 42.048V4.177m0 37.87c-12.071 0-23.118 4.77-31.633 12.453m.784 97.294s16.682-6.935 28.858-6.935c12.177 0 30.849 6.935 30.849 6.935m-59.707 0-14.05 8.186c-1.711.997-3.861-.233-3.861-2.208V150m17.911 1.794v54.49m59.707-54.49v54.49m-69.919-33.26s9.968-6.623 17.152-9.548c8.315-3.385 10.928-5.381 20.059-5.8 11.156-.512 18.036 1.731 28.23 5.801 7.208 2.877 17.964 9.547 17.964 9.547M356.987 108l9.013-2m-9.013 2v14m0 0 10.513-3m-10.513 3v14m0 0 12.513-4.5m-12.513 4.5v14m1.631-70H369.5m-10.882 0A51.855 51.855 0 0 1 363 68.77M356.987 150l17.911-8.5M363 68.77 374.114 70M363 68.77a52.265 52.265 0 0 1 11.114-14.27m0 0L380.5 59" stroke="#02193B" stroke-width="7" stroke-linecap="round"/><path d="m182.904 105.719 3.967 14.807 3.624 13.523 3.623 13.523 3.624 13.523 2.011 7.506c.512 1.909 2.907 2.54 4.302 1.135l11.453-11.544s14.318-11.016 26.08-14.168c11.761-3.151 31.592-1.285 31.592-1.285l17.781 3.997c1.883.424 3.545-1.301 3.047-3.16l-16.907-63.097c-6.96-25.975-34.189-43.248-60.201-36.278-11.659 3.124-21.095 10.589-27.332 20.215a52.25 52.25 0 0 0-7.041 16.66 51.804 51.804 0 0 0-1.327 11.982 50.22 50.22 0 0 0 1.704 12.661Z" fill="#F4F6F6"/><path d="m182.904 105.719 8.403-3.464m-8.403 3.464 3.967 14.807m-3.967-14.807a50.22 50.22 0 0 1-1.704-12.661M216.9 44.2c26.012-6.97 53.241 10.303 60.201 36.278l16.907 63.097c.498 1.859-1.164 3.584-3.047 3.16l-17.781-3.997M216.9 44.201l-9.801-36.58M216.9 44.2c-11.659 3.124-21.095 10.589-27.332 20.215m25.94 93.776s14.318-11.016 26.08-14.168c11.761-3.151 31.592-1.285 31.592-1.285m-57.672 15.453-11.453 11.544c-1.395 1.405-3.79.774-4.302-1.135l-2.011-7.506m17.766-2.903 14.103 52.633m43.569-68.086 14.103 52.633m-100.412-74.846 8.189-4.265m-8.189 4.265 3.624 13.523m0 0 9.379-5.619m-9.379 5.619 3.623 13.523m0 0 10.923-7.586m-10.923 7.586 3.624 13.523M181.2 93.058l10.512-2.817M181.2 93.058a51.804 51.804 0 0 1 1.327-11.981m15.215 80.018 15.101-12.847m-30.316-67.171 11.053-1.69m-11.053 1.69a52.25 52.25 0 0 1 7.041-16.661m0 0 7.334 2.694" stroke="#02193B" stroke-width="7" stroke-linecap="round"/><path d="m5.904 105.719 3.967 14.807 3.624 13.523 3.623 13.523 3.624 13.523 2.011 7.506c.512 1.909 2.027 1.744 4.302 1.135l13.643-3.369 27.138-7.271 30.534-8.182 15.591-4.178c1.688-.452 3.545-1.301 3.047-3.16l-16.907-63.097c-6.96-25.975-34.189-43.248-60.2-36.278-11.66 3.124-21.096 10.589-27.333 20.215A52.263 52.263 0 0 0 4.2 93.058c.03 4.22.582 8.474 1.704 12.661Z" fill="#F4F6F6"/><path d="m5.904 105.719 8.403-3.464m-8.403 3.464 3.967 14.807m-3.967-14.807A50.228 50.228 0 0 1 4.2 93.058M39.9 44.2c26.012-6.97 53.241 10.303 60.201 36.278l16.907 63.097c.498 1.859-1.359 2.708-3.047 3.16l-15.59 4.178M39.9 44.201 30.098 7.62M39.9 44.2C28.24 47.325 18.805 54.79 12.568 64.416m28.13 101.951 27.138-7.271 30.534-8.182m-57.672 15.453-13.643 3.369c-2.274.609-3.79.774-4.302-1.135l-2.011-7.506m19.956 5.272 11.913 44.458m45.76-59.911 11.912 44.458M9.871 120.526l8.19-4.265m-8.19 4.265 3.624 13.523m0 0 9.631-4.651m-9.631 4.651 3.623 13.523m0 0 11.7-4.688m-11.7 4.688 3.624 13.523M4.2 93.058l10.511-2.817m-10.51 2.817a51.827 51.827 0 0 1 1.326-11.981m15.215 80.018 16.784-6.568m-32-73.45 11.054-1.69m-11.053 1.69a52.263 52.263 0 0 1 7.041-16.661m0 0 7.333 2.694" stroke="#02193B" stroke-width="7" stroke-linecap="round"/></svg>