<svg fill="none" xmlns="http://www.w3.org/2000/svg" viewBox="0 0 427 232"><path d="m9.163 42.88-5.449-3.017a.192.192 0 0 1-.1-.206c.279-1.473 2.818-14.546 6.25-21.283 3.414-6.699 11.3-14.174 12.27-15.08a.198.198 0 0 1 .22-.034L132.5 55.206a.299.299 0 0 1 .159.355c-.104.35-.316 1.056-.616 2.022l217.858 115.191a.202.202 0 0 1 .099.232 136.23 136.23 0 0 1-1.758 5.735l44.51 18.489 26.551 30.812-41.169-2.122L342.5 202.5l-4.821-2.791a175.566 175.566 0 0 1-4.272 5.858.2.2 0 0 1-.247.059l-8.555-4.196-.094.092-6.237-3.178-6.732-3.306-6.284-3.086-6.733-3.306-7.182-3.527-7.602-3.727-.087.094-7.632-3.743-7.184-3.523-6.237-3.177-6.733-3.307-6.284-3.085-6.733-3.306-7.179-3.526-.003-.001-7.152-3.508-.087.095-7.633-3.743-7.183-3.523-6.237-3.178-6.733-3.306-6.284-3.086-6.733-3.306-7.182-3.526-7.184-3.523-7.632-3.743-7.184-3.523-6.237-3.178-6.733-3.306-6.284-3.086-6.733-3.306-7.182-3.526-8.528-4.188-4.791-2.353c-.627.853-1.087 1.465-1.313 1.763a.299.299 0 0 1-.383.081l-6.118-3.387-7.44-4.12-5.691-3.15-7.44-4.119-7.88-4.362-6.127-3.392-6.566-3.635-6.565-3.635-6.128-3.392-6.565-3.635-7.003-3.877-7.441-4.12-7.025-3.834-6.544-3.677-6.565-3.635Z" fill="#F4F6F6"/><path d="M124.806 76.94c2.968-6.045 5.934-15.157 7.238-19.357m-7.238 19.357c-3.443 7.014-9.942 16.118-12.849 20.065m12.849-20.065 13.907 7.086-105.942-53.98m99.273 27.537c.3-.966.512-1.673.616-2.022a.299.299 0 0 0-.159-.355L22.354 3.26a.198.198 0 0 0-.22.034c-.97.906-8.856 8.381-12.27 15.08-3.432 6.737-5.971 19.81-6.25 21.283a.192.192 0 0 0 .1.206l106.547 58.986c.13.072.293.038.383-.08.226-.3.686-.911 1.313-1.764m20.087-39.422 217.858 115.191a.202.202 0 0 1 .099.232 136.23 136.23 0 0 1-1.758 5.735M111.957 97.005l4.791 2.353m231.495 79.383 44.51 18.489 26.551 30.812m-71.061-49.301c-2.729 8.205-5.748 14.036-10.564 20.968m81.625 28.333-41.169-2.122L342.5 202.5m76.804 25.542L382.5 209.5m-44.821-9.791a175.566 175.566 0 0 1-4.272 5.858.2.2 0 0 1-.247.059l-159.899-78.412m164.418 72.495 4.821 2.791M116.748 99.358C123 92 131.478 77.254 134 69m-17.252 30.358 8.528 4.188m0 0 5.359-7.213m-5.359 7.213 7.182 3.526m0 0 5.305-7.107m-5.305 7.107 6.733 3.306m0 0 5.254-7.008m-5.254 7.008 6.284 3.086m0 0 5.207-6.916m-5.207 6.916 6.733 3.306m0 0 5.602-6.59m-5.602 6.59 6.237 3.178m0 0 5.603-6.59m-5.603 6.59 7.184 3.523m0 0 5.093-5.59m-5.093 5.59 7.632 3.743m0 0 5.034-5.474m7.508 1.784-5.358 7.213 7.182 3.526m0 0 5.304-7.107m-5.304 7.107 6.733 3.306m0 0 5.254-7.008m-5.254 7.008 6.284 3.086m0 0 5.207-6.916m-5.207 6.916 6.733 3.306m0 0 5.602-6.59m-5.602 6.59 6.237 3.178m0 0 5.602-6.59m-5.602 6.59 7.183 3.523m0 0 5.093-5.59m-5.093 5.59 7.633 3.743 5.034-5.474m7.136 2.514-4.931 6.373 7.182 3.527m0 0 4.851-6.216m-4.851 6.216 6.733 3.306m0 0 4.8-6.117m-4.8 6.117 6.284 3.085m0 0 5.207-6.916m-5.207 6.916 6.733 3.307m0 0 4.703-5.927m-4.703 5.927 6.237 3.177m0 0 5.149-5.699m-5.149 5.699 7.184 3.523m0 0 5.093-5.59m-5.093 5.59 7.632 3.743 5.034-5.474m7.574 3.859-4.919 5.248 7.182 3.527m0 0 5.319-6.034m-5.319 6.034 6.733 3.306m0 0 4.88-6.275m-4.88 6.275 6.284 3.086m0 0 4.834-6.183m-4.834 6.183 6.732 3.306m0 0 5.23-5.857m-5.23 5.857 6.237 3.178 5.617-5.517M14.829 33.961c-2.184 2.084-4.07 5.998-5.666 8.918l6.565 3.635m0 0 5.019-6.545m-5.019 6.545 6.544 3.677m0 0 5.157-6.817m-5.157 6.817 7.025 3.835m0 0 5.252-5.902m-5.252 5.902 7.44 4.12 5.385-6.163m6.532 3.701-4.913 6.338 6.565 3.635m0 0 4.585-6.795m-4.585 6.795 6.128 3.392m0 0 5.736-6.851m-5.736 6.851L63 72.684m0 0 5.483-7.457m-5.484 7.457 6.566 3.635m0 0 5.819-7.015m-5.82 7.015 6.129 3.392m0 0 6.373-7.002m-6.373 7.002 7.878 4.362m0 0 6.069-7.505m-6.069 7.505 7.441 4.12 5.756-7.993m7.288 2.217c-2.721 3.866-3.959 5.272-7.354 8.926l7.441 4.12c3.24-3.874 4.917-6.068 7.386-10.091M34.549 28.5 139.5 82.417m203 120.083c6.5-10.5 4.955-8.5 7-14" stroke="#02193B" stroke-width="6" stroke-linecap="round"/></svg>