<svg fill="none" xmlns="http://www.w3.org/2000/svg" viewBox="0 0 399 256"><path fill-rule="evenodd" clip-rule="evenodd" d="M391.634 5.227c.197-.006.394-.05.578-.12.835-.325 1.932.093 1.932 1.253a560.61 560.61 0 0 0-.573 104.705.056.056 0 0 0 .06.052c1.825-.114 1.825 2.832 0 2.832a1207.242 1207.242 0 0 1-111.52 2.776c-.378 0-.741-.149-1.009-.414-.377-.375-.747-.841-.97-1.323a1.512 1.512 0 0 1-.132-.642 1574.324 1574.324 0 0 0 1.997-55.296V31.742a87.157 87.157 0 0 1 .741-25.269 1.42 1.42 0 0 1 1.214-1.011 1.433 1.433 0 0 1 1.406.727c.04.072.137.097.207.053.227-.144.493-.222.767-.222l105.302-.793Z" fill="#F4F6F6" stroke="#02193B" stroke-width="8" stroke-linejoin="round"/><path d="M105 116H15.207c-5.603 0-10.113-4.603-9.998-10.205l.961-46.962-.943-44.211C5.104 8.862 9.86 4.19 15.617 4.416l92.859 3.641c.446.017.891-.039 1.318-.167C112.39 7.114 115 9.058 115 11.767V106c0 5.523-4.477 10-10 10Z" fill="#F4F6F6" stroke="#02193B" stroke-width="8" stroke-linecap="round"/><path d="M4.016 193.603c.772-27.519 31.657-45.579 31.657-45.579S55.333 136 77.668 136c47.804 0 124.697 2.968 124.697 2.968h11.637s77.524.001 129.219 0c28.569-.001 51.658 28.376 51.779 54.635.136 29.607-30.556 57.039-62.762 57.605-101.445 1.782-184.792 0-268.778 0-30.937 0-60.241-29.178-59.444-57.605Z" fill="#F4F6F6" stroke="#02193B" stroke-width="8"/><path d="m143.582 7.747 99.313 4.255a10.001 10.001 0 0 1 9.572 9.865l.462 36.556 1.163 57.665-98.934 2.607c-6.101.161-10.938-5.129-10.322-11.2 1.193-11.757 2.807-30.176 2.817-43.83l-.518-16.08c-1.097-19.392-3.553-39.838-3.553-39.838Z" fill="#F4F6F6"/><path d="m143.582 7.747 99.313 4.255a10.001 10.001 0 0 1 9.572 9.865l.462 36.556M143.582 7.747s4.088 34.023 4.071 55.918m-4.071-55.918L143 6m.582 1.747 2.908 19.804 1.163 36.114m106.439 52.423-98.934 2.607c-6.101.161-10.938-5.129-10.322-11.2 1.193-11.757 2.807-30.176 2.817-43.83m106.439 52.423H257m-2.908 0-1.163-57.665m1.163 57.665-1.745-48.928.582-8.737M80.294 34l-1.176 1.562m0 0-33.53 31.105-9.932-8.209a1 1 0 0 0-1.296.019l-8.66 7.577a1 1 0 0 0-.138 1.355l16.452 21.755a1 1 0 0 0 1.438.164L68.53 68.417l24.435-19.385a2 2 0 0 0-.047-3.17l-13.8-10.3Z" stroke="#02193B" stroke-width="8" stroke-linecap="round"/><path d="M100.884 192.106c2.477 2.956 3.716 6.27 3.716 9.944-.084 4.223-.903 8.119-3.716 10.99 0 2.692-6.783 3.895-10.773 3.895H73.544c-2.94 0-4.662-.802-5.166-2.407-.252-.718-.378-1.816-.378-3.293v-35.154c0-1.014.021-1.753.063-2.217.084-.465.294-1.014.63-1.647.588-1.14 2.226-1.71 4.914-1.71l16.142-.354c3.864 0 6.83 1.705 9.434 4.408 2.73 2.744 4.094 6.038 4.094 9.881 0 2.787-.798 5.341-2.393 7.664Zm-7.434 9.311c0-1.014-.126-1.816-.378-2.407-.21-.591-.588-1.014-1.134-1.267-.84-.338-2.016-.507-3.528-.507-1.511 0-2.645-.295-3.401-.886-.756-.592-1.134-1.795-1.134-3.611 0-1.858.378-2.86 1.134-3.452.798-.591 2.1-1.108 3.906-1.108 1.68 0 2.687-.444 3.023-1.33.126-.465.19-1.225.19-2.281 0-1.055-.358-1.794-1.072-2.217-.672-.422-1.7-.633-3.087-.633H79.15v24.006h10.331c2.646 0 3.97-1.436 3.97-4.307ZM138.9 172.28c.42-.675 1.029-1.14 1.827-1.393.798-.254 1.785-.38 2.961-.38 1.218 0 2.184.105 2.898.316.714.212 1.26.465 1.638.761.378.295.651.738.819 1.33.252.718.378 1.815.378 3.293v19.129c0 5.574.609 11.338-2.835 15.899-1.68 2.153-6.174 3.209-8.82 4.56-2.645 1.309-5.585 1.964-8.819 1.964-3.192 0-6.11-.676-8.756-2.027-2.604-1.352-4.725-3.125-6.363-5.321-3.402-4.476-3.736-9.607-3.736-15.265l-1.366-19.002c0-1.013.021-1.752.063-2.217.084-.507.294-1.077.629-1.71.336-.633.903-1.077 1.701-1.33.798-.254 1.869-.38 3.213-.38s2.415.126 3.213.38c.798.253 1.344.697 1.638 1.33.504.971.756 2.301.756 3.99l1.308 18.939c0 2.576-.678 5.088.582 7.411.63 1.182 1.574 2.132 2.834 2.85s2.751 1.077 4.473 1.077c3.066 0 5.355-1.14 6.867-3.42 1.511-2.281 2.267-4.92 2.267-7.918v-19.382c0-1.647.21-2.808.63-3.484ZM157.458 170.887l22.191.19 12.834-.57c1.344 0 2.331.169 2.961.506.63.296 1.05.782 1.26 1.457.21.676.315 1.563.315 2.661 0 1.097-.105 1.984-.315 2.66-.21.633-.567 1.077-1.071 1.33-.756.38-1.827.57-3.213.57h-12.032l-.126 15.535.126 16.325c0 .971-.042 1.689-.126 2.154-.042.464-.231 1.013-.567 1.647-.294.591-.84 1.013-1.638 1.266-.798.254-1.847.38-3.149.38s-2.352-.126-3.15-.38c-.756-.253-1.302-.675-1.638-1.266-.294-.634-.483-1.183-.567-1.647-.042-.507-.063-1.246-.063-2.217v-31.797l-12.032-.96c-1.344 0-2.115.295-2.745 0-.63-.338-1.329-.328-1.539-1.003-.21-.676-.315-1.563-.315-2.661s.105-1.963.315-2.597c.21-.675 1.035-.744 1.539-.997.756-.38 1.359-.586 2.745-.586ZM203.536 170l16.464-.5 18.561.5c1.344 0 2.331.676 2.961 1.013.63.296 1.05.782 1.26 1.457.21.676.315 1.563.315 2.661 0 1.097-.105 1.984-.315 2.66-.21.633-.567 1.077-1.071 1.33-.756.38-1.827.57-3.213.57h-12.032v31.86c0 .971-.042 1.689-.126 2.154-.042.464-.231 1.013-.567 1.647-.294.591-.825.515-1.623.768s-1.848.38-3.15.38c-1.302 0-2.352-.127-3.15-.38-.756-.253-1.316-.177-1.652-.768-.294-.634-.483-1.183-.567-1.647-.042-.507-.063-1.246-.063-2.217l.63-18.902.855-12.895h-13.58c-1.344 0-2.331-.148-2.961-.443a2.514 2.514 0 0 1-1.26-1.52c-.21-.676-.315-1.563-.315-2.661s.105-1.963.315-2.597c.21-.675.567-1.14 1.071-1.393.756-.38 1.827-1.077 3.213-1.077ZM264.507 170c6.216 0 11.612 2.259 16.19 6.777 4.578 4.519 6.867 10.135 6.867 16.849 0 6.672-2.184 12.372-6.552 17.102-4.368 4.687-9.495 8.25-16.127 7.031-6.383 0-11.822-2.323-16.316-6.968-4.451-4.645-6.677-10.177-6.677-16.595 0-3.505.63-6.777 1.89-9.818 1.26-3.082 2.94-5.658 5.039-7.727a23.58 23.58 0 0 1 7.245-4.877c2.73-1.183 5.543-1.774 8.441-1.774Zm-11.465 23.879c0 3.758 1.197 6.82 3.591 9.185 2.436 2.322 5.144 3.483 8.126 3.483 2.982 0 5.67-1.14 8.064-3.42 2.394-2.28 3.59-5.342 3.59-9.184 0-3.843-1.217-6.926-3.653-9.248-2.394-2.323-5.082-3.484-8.064-3.484-2.981 0-6.236-.886-8.63 1.478-2.394 2.323-3.024 7.432-3.024 11.19ZM321.48 172.534c.42-.76 1.029-1.267 1.827-1.521.798-.253 1.785-.38 2.96-.38 1.218 0 2.184.106 2.898.317.756.211 1.302.465 1.638.76.378.296.819.423.819 1.33.252.676.378 1.753.378 3.231v35.154c0 1.013-.042 1.752-.126 2.216-.042.465-.231 1.014-.567 1.647-.588 1.14-2.226 1.71-4.914 1.71-1.637 0-2.771-.126-3.401-.38a3.678 3.678 0 0 1-1.575-1.203c-9.45-12.668-15.665-20.945-18.647-24.829l-.126 9.918.126 10.921c0 .955-.042 1.752-.126 2.216-.042.465-.231 1.014-.567 1.647-.588 1.14-2.226 1.71-4.913 1.71-2.604 0-4.2-.57-4.788-1.71-.336-.633-.546-1.203-.63-1.71-.042-.507-.063-1.246-.063-2.217v-35.344c0-1.604.189-2.766.567-3.483.42-.76 1.029-1.267 1.827-1.521.798-.253 1.827-.38 3.087-.38 1.259 0 2.246.127 2.96.38.756.212 1.281.465 1.575.761.168.126.518 1.367 1.316 2.338 8.861 12.119 14.912 18.913 17.061 23.753l.837-12.536v-9.312c0-1.604.189-2.766.567-3.483Z" fill="#02193B"/></svg>