<svg fill="none" xmlns="http://www.w3.org/2000/svg" viewBox="0 0 469 225"><path d="M138.346 191.549c16.633 2.534 21.37 18.438 38.11 20.13 14.784 1.494 34.716-9.188 42.28-13.638.875-.515.474-1.85-.542-1.866-6.872-.106-21.847-1.041-30.147-6.89-18.228-12.845-2.412-36.214-13.279-55.742-11.657-20.946-21.771-34.032-44.097-42.563-19.853-7.586-34.97-9.113-54.421-.464-4.368 1.942-8.303 4.047-11.848 6.372 0 0 4.148-24.174-6.305-29.514-3.597-1.837-6.2-2.997-10.132-2.061-5.861 1.395-9.518 12.208-9.518 12.208s-13.395-4.25-20.955-.728c-3.239 1.51-7.176 5.618-9.172 10.51-1.996 4.892 3.646 16.654 3.646 16.654s-5.325 3.797-6.793 7.458c-2.152 5.364-.484 9.562 2.303 14.612 6.196 11.231 32.084 6.528 32.084 6.528-2.083 7.415-3.394 14.148-3.476 20.596-.059 4.651.521 9.153 1.912 13.655 1.105 3.575 2.72 7.149 4.931 10.798.37.611.758 1.225 1.162 1.84 2.275 3.465 6.07 7.339 8.723 9.766 5.771 4.235 6.053 4.647 10.236 6.468 4.223 1.837 8.777 3.084 13.658 3.993 3.777.703 7.75 1.204 11.916 1.619 1.22.121 2.456.235 3.709.345 3.272.287 6.265.061 9.076-.489 4.843-.946 9.148-2.851 13.425-4.743l.326-.144c3.92-1.733 7.827-3.435 12.112-4.357 3.39-.73 7.018-.971 11.076-.353Z" fill="#F4F6F6"/><path d="M39.56 132.555s-25.888 4.703-32.084-6.528c-2.787-5.05-4.455-9.248-2.303-14.612 1.468-3.661 6.793-7.458 6.793-7.458m27.594 28.598c4.604-16.387 12.264-27.416 24.842-35.667M39.56 132.555c-2.083 7.415-3.394 14.148-3.476 20.596m8.005 26.293a59.502 59.502 0 0 1-1.162-1.84c-2.211-3.649-3.826-7.223-4.93-10.798m6.092 12.638c2.275 3.465 6.07 7.339 8.723 9.766m-8.723-9.766 14.083-16.582m80.174 28.687c16.633 2.534 21.37 18.438 38.11 20.13 14.784 1.494 34.716-9.188 42.28-13.638.875-.515.474-1.85-.542-1.866-6.872-.106-21.847-1.041-30.147-6.89-18.228-12.845-2.412-36.214-13.279-55.742-11.657-20.946-21.771-34.032-44.097-42.563-19.853-7.586-34.97-9.113-54.421-.464-4.368 1.942-8.303 4.047-11.848 6.372m73.944 94.661 5.874-7.723m-5.874 7.723c-4.058-.618-7.686-.377-11.076.353M11.966 103.957l21.868 4.449m-21.868-4.449S6.324 92.195 8.32 87.303c1.996-4.892 5.933-9 9.172-10.51 7.56-3.522 20.955.728 20.955.728m0 0 8.103 14.563M38.447 77.52s3.657-10.813 9.518-12.208c3.932-.936 6.535.224 10.132 2.061 10.453 5.34 6.305 29.514 6.305 29.514m-28.318 56.263c-.059 4.651.521 9.153 1.912 13.655m-1.912-13.655 8.741-9.957m-6.829 23.612 14.986-13.789m74.288 38.885 7.336-13.49m-7.336 13.49c-4.285.922-8.192 2.624-12.112 4.357m0 0 7.994-16.72m-7.994 16.72c-4.384 1.939-8.785 3.917-13.751 4.887m0 0c-2.811.55-5.803.776-9.076.489-1.253-.11-2.49-.224-3.709-.345m12.785-.144 11.165-21.208m-23.95 21.352 10.795-20.457M88.622 201.29c-4.165-.415-8.139-.916-11.916-1.619m0 0 10.896-18.446m-10.896 18.446c-4.88-.909-9.435-2.156-13.658-3.993m0 0 12.062-18.259m-12.062 18.259c-4.183-1.821-4.465-2.233-10.236-6.468m0 0 13.687-17.115" stroke="#02193B" stroke-width="7" stroke-linecap="round"/><path d="M286.112 121.854c16.443-23.785 23.321-47.939 51.152-52.962 8.309-1.5 21.598 0 21.598 0l9.093-36.484s4.89-9.645 10.231-9.416c7.592.325 4.753 16.477 4.753 16.477l-7.003 24.946c-.071.25.474.44.565.195 5.493-14.834 17.769-44.943 30.103-54.564 5.112-3.988 10.859-7.405 15.859-5.507 2.634 1 6.228 4.058 7.597 9.77 1.37 5.713-2.356 12.975-11.78 22.806-9.964 10.395-24.585 25.28-30.009 30.794-.175.177.074.467.272.316 7.731-5.9 32.551-24.511 51.026-34.64 9.34-5.122 17.14-3.74 22.734 3.53 6.185 8.038 2.667 18.59-5.148 24.374-27.095 20.05-72.149 30.942-72.149 30.942s7.189 17.613 6.82 29.423c-.963 30.861-30.353 37.285-54.562 55.316-3.005 2.238-6.262 4.438-9.694 6.585-32.293 20.204-80.107 35.785-80.107 35.785s15.474-64.163 38.649-97.686Z" fill="#F4F6F6"/><path d="M385.006 92.431s7.189 17.613 6.82 29.423c-.963 30.861-30.353 37.285-54.562 55.316-3.005 2.238-6.262 4.438-9.694 6.585m57.436-91.324s45.054-10.891 72.149-30.942c7.815-5.783 11.333-16.336 5.148-24.374-5.594-7.27-13.394-8.652-22.734-3.53-18.475 10.129-43.295 28.74-51.026 34.64-.198.151-.447-.138-.272-.316 5.424-5.514 20.045-20.4 30.009-30.794 9.424-9.831 13.15-17.093 11.78-22.806-1.369-5.712-4.963-8.77-7.597-9.77-5-1.898-10.747 1.52-15.859 5.507-12.334 9.62-24.61 39.73-30.103 54.564-.091.245-.636.056-.566-.195l7.004-24.946s2.839-16.152-4.753-16.477c-5.341-.229-10.231 9.415-10.231 9.415l-9.093 36.485m26.144 23.539s-1.678-2.668-4.056-5.891c-2.149-2.914-4.869-6.28-7.436-8.539-5.059-4.451-14.652-9.109-14.652-9.109m0 0s-13.289-1.5-21.598 0c-27.831 5.023-34.709 29.177-51.152 52.962-23.175 33.523-38.649 97.686-38.649 97.686s47.814-15.581 80.107-35.785m-20.026-91.324c15.751 8.515 22.743 14.378 31.807 26.852m-22.383-7.077c7.852 5.108 11.004 8.56 15.315 15.334m-12.959 1.179 3.534 3.539m4.712 51.497c-5.862-11.649-9.889-17.369-20.026-24.369m2.356 23.589c-.622-2.749-4.906-7.833-8.246-10.615m-2.357 11.395-1.178-1.959" stroke="#02193B" stroke-width="7" stroke-linecap="round"/></svg>